<svg width="10" height="10" viewBox="0 0 10 10" fill="none" xmlns="http://www.w3.org/2000/svg">
<path d="M9.44 4.71499C9.4043 4.62292 9.35078 4.53881 9.2825 4.46749L5.5325 0.717487C5.46257 0.647558 5.37955 0.592087 5.28819 0.554242C5.19682 0.516397 5.09889 0.496918 5 0.496918C4.80027 0.496918 4.60873 0.576259 4.4675 0.717487C4.39757 0.787415 4.3421 0.870433 4.30425 0.9618C4.26641 1.05317 4.24693 1.15109 4.24693 1.24999C4.24693 1.44971 4.32627 1.64126 4.4675 1.78249L6.9425 4.24999H1.25C1.05109 4.24999 0.860322 4.329 0.71967 4.46966C0.579018 4.61031 0.5 4.80107 0.5 4.99999C0.5 5.1989 0.579018 5.38966 0.71967 5.53032C0.860322 5.67097 1.05109 5.74999 1.25 5.74999H6.9425L4.4675 8.21749C4.3972 8.28721 4.34141 8.37016 4.30333 8.46155C4.26525 8.55295 4.24565 8.65098 4.24565 8.74999C4.24565 8.849 4.26525 8.94703 4.30333 9.03842C4.34141 9.12981 4.3972 9.21276 4.4675 9.28249C4.53722 9.35278 4.62017 9.40858 4.71157 9.44666C4.80296 9.48473 4.90099 9.50434 5 9.50434C5.09901 9.50434 5.19704 9.48473 5.28843 9.44666C5.37983 9.40858 5.46278 9.35278 5.5325 9.28249L9.2825 5.53249C9.35078 5.46116 9.4043 5.37705 9.44 5.28499C9.51501 5.10239 9.51501 4.89758 9.44 4.71499Z" fill="url(#paint0_linear)"/>
<defs>
<linearGradient id="paint0_linear" x1="4.99813" y1="3.64951" x2="-0.836601" y2="5.69884" gradientUnits="userSpaceOnUse">
<stop stop-color="#FF8E47"/>
<stop offset="1" stop-color="#FF2CED"/>
</linearGradient>
</defs>
</svg>
