<svg width="18" height="18" viewBox="0 0 18 18" fill="none" xmlns="http://www.w3.org/2000/svg">
<path d="M9 18C13.9706 18 18 13.9706 18 9C18 4.02944 13.9706 0 9 0C4.02944 0 0 4.02944 0 9C0 13.9706 4.02944 18 9 18Z" fill="#F0F0F0"/>
<path d="M1.86048 3.52063C1.15353 4.44043 0.620453 5.50056 0.310059 6.65225H4.9921L1.86048 3.52063ZM17.69 6.65225C17.3796 5.5006 16.8465 4.44046 16.1395 3.52067L13.008 6.65225H17.69ZM0.310059 11.3479C0.620488 12.4995 1.15356 13.5597 1.86048 14.4794L4.99199 11.3479H0.310059ZM14.4794 1.86052C13.5596 1.15356 12.4995 0.620488 11.3478 0.310059V4.99206L14.4794 1.86052ZM3.52063 16.1395C4.44043 16.8465 5.50056 17.3795 6.65221 17.69V13.008L3.52063 16.1395ZM6.65218 0.310059C5.50053 0.620488 4.44039 1.15356 3.52063 1.86048L6.65218 4.99203V0.310059ZM11.3479 17.69C12.4995 17.3795 13.5596 16.8465 14.4794 16.1395L11.3479 13.008V17.69ZM13.008 11.3479L16.1395 14.4795C16.8465 13.5597 17.3796 12.4995 17.69 11.3479H13.008Z" fill="#0052B4"/>
<path d="M17.9238 7.8261H10.174H10.1739V0.0761836C9.78964 0.0261563 9.39786 0 9 0C8.60207 0 8.21035 0.0261563 7.8261 0.0761836V7.82603V7.82606H0.0761836C0.0261563 8.21036 0 8.60214 0 9C0 9.39793 0.0261563 9.78964 0.0761836 10.1739H7.82603H7.82606V17.9238C8.21036 17.9738 8.60207 18 9 18C9.39786 18 9.78964 17.9739 10.1739 17.9238V10.174V10.1739H17.9238C17.9738 9.78964 18 9.39793 18 9C18 8.60214 17.9738 8.21035 17.9238 7.8261Z" fill="#D80027"/>
<path d="M11.3478 11.3478L15.3639 15.364C15.5486 15.1793 15.7248 14.9863 15.8929 14.7862L12.4545 11.3478H11.3478V11.3478ZM6.65207 11.3478H6.652L2.63593 15.3639C2.82057 15.5486 3.01361 15.7248 3.21372 15.893L6.65207 12.4545V11.3478ZM6.65207 6.6522V6.65213L2.63597 2.63599C2.45125 2.82063 2.27505 3.01367 2.10693 3.21378L5.54532 6.65217H6.65207V6.6522ZM11.3478 6.6522L15.3639 2.63602C15.1793 2.45131 14.9862 2.27511 14.7861 2.10703L11.3478 5.54541V6.6522Z" fill="#D80027"/>
</svg>
