<svg width="18" height="18" viewBox="0 0 18 18" fill="none" xmlns="http://www.w3.org/2000/svg">
<g opacity="0.3">
<path d="M9 18C13.9706 18 18 13.9706 18 9C18 4.02944 13.9706 0 9 0C4.02944 0 0 4.02944 0 9C0 13.9706 4.02944 18 9 18Z" fill="#F0F0F0"/>
<path d="M17.9238 7.8261H10.174H10.1739V0.0761836C9.78964 0.0261563 9.39786 0 9 0C8.60214 0 8.21035 0.0261563 7.8261 0.0761836V7.82603V7.82606H0.0761836C0.0261563 8.21036 0 8.60214 0 9C0 9.39793 0.0261563 9.78964 0.0761836 10.1739H7.82603H7.82606V17.9238C8.21036 17.9738 8.60214 18 9 18C9.39786 18 9.78964 17.9739 10.1739 17.9238V10.174V10.1739H17.9238C17.9738 9.78964 18 9.39793 18 9C18 8.60214 17.9738 8.21035 17.9238 7.8261Z" fill="#D80027"/>
<path d="M5.47821 4.30437V3.13043H4.30431V4.30437H3.13037V5.47827H4.30431V6.65217H5.47821V5.47827H6.65211V4.30437H5.47821Z" fill="#D80027"/>
<path d="M13.6957 4.30437V3.13043H12.5218V4.30437H11.3479V5.47827H12.5218V6.65217H13.6957V5.47827H14.8696V4.30437H13.6957Z" fill="#D80027"/>
<path d="M5.47821 12.5217V11.3478H4.30431V12.5217H3.13037V13.6956H4.30431V14.8696H5.47821V13.6956H6.65211V12.5217H5.47821Z" fill="#D80027"/>
<path d="M13.6957 12.5217V11.3478H12.5218V12.5217H11.3479V13.6956H12.5218V14.8696H13.6957V13.6956H14.8696V12.5217H13.6957Z" fill="#D80027"/>
</g>
</svg>
