<svg width="455" height="430" viewBox="0 0 455 430" fill="none" xmlns="http://www.w3.org/2000/svg">
<mask id="mask0" mask-type="alpha" maskUnits="userSpaceOnUse" x="10" y="0" width="445" height="395">
<path d="M449.649 136.489C471.869 211.781 422.272 301.82 349.266 351.109C276.656 400.786 180.637 410.101 109.614 364.305C38.1952 318.897 -8.62408 218.767 17.1662 138.817C42.9565 58.8684 140.96 -0.511297 236.979 0.264908C332.998 0.65301 427.43 61.197 449.649 136.489Z" fill="#CE0000"/>
</mask>
<g mask="url(#mask0)">
<rect width="2" height="483" rx="1" transform="matrix(-0.8922 -0.45164 -0.45164 0.8922 588 124.726)" fill="url(#paint0_linear)"/>
<rect width="2" height="483" rx="1" transform="matrix(-0.8922 -0.45164 -0.45164 0.8922 578.186 119.758)" fill="url(#paint1_linear)"/>
<rect width="2" height="483" rx="1" transform="matrix(-0.8922 -0.45164 -0.45164 0.8922 568.372 114.79)" fill="url(#paint2_linear)"/>
<rect width="2" height="483" rx="1" transform="matrix(-0.8922 -0.45164 -0.45164 0.8922 558.557 109.822)" fill="url(#paint3_linear)"/>
<rect width="2" height="483" rx="1" transform="matrix(-0.8922 -0.45164 -0.45164 0.8922 548.743 104.854)" fill="url(#paint4_linear)"/>
<rect width="2" height="483" rx="1" transform="matrix(-0.8922 -0.45164 -0.45164 0.8922 538.929 99.8855)" fill="url(#paint5_linear)"/>
<rect width="2" height="483" rx="1" transform="matrix(-0.8922 -0.45164 -0.45164 0.8922 529.115 94.9175)" fill="url(#paint6_linear)"/>
<rect width="2" height="483" rx="1" transform="matrix(-0.8922 -0.45164 -0.45164 0.8922 519.301 89.9494)" fill="url(#paint7_linear)"/>
<rect width="2" height="483" rx="1" transform="matrix(-0.8922 -0.45164 -0.45164 0.8922 509.486 84.9814)" fill="url(#paint8_linear)"/>
<rect width="2" height="483" rx="1" transform="matrix(-0.8922 -0.45164 -0.45164 0.8922 499.672 80.0134)" fill="url(#paint9_linear)"/>
<rect width="2" height="483" rx="1" transform="matrix(-0.8922 -0.45164 -0.45164 0.8922 489.858 75.0453)" fill="url(#paint10_linear)"/>
<rect width="2" height="483" rx="1" transform="matrix(-0.8922 -0.45164 -0.45164 0.8922 480.044 70.0773)" fill="url(#paint11_linear)"/>
<rect width="2" height="483" rx="1" transform="matrix(-0.8922 -0.45164 -0.45164 0.8922 470.229 65.1093)" fill="url(#paint12_linear)"/>
<rect width="2" height="483" rx="1" transform="matrix(-0.8922 -0.45164 -0.45164 0.8922 460.415 60.1412)" fill="url(#paint13_linear)"/>
<rect width="2" height="483" rx="1" transform="matrix(-0.8922 -0.45164 -0.45164 0.8922 450.601 55.1732)" fill="url(#paint14_linear)"/>
<rect width="2" height="483" rx="1" transform="matrix(-0.8922 -0.45164 -0.45164 0.8922 440.787 50.2051)" fill="url(#paint15_linear)"/>
<rect width="2" height="483" rx="1" transform="matrix(-0.8922 -0.45164 -0.45164 0.8922 430.973 45.2371)" fill="url(#paint16_linear)"/>
<rect width="2" height="483" rx="1" transform="matrix(-0.8922 -0.45164 -0.45164 0.8922 421.158 40.269)" fill="url(#paint17_linear)"/>
<rect width="2" height="483" rx="1" transform="matrix(-0.8922 -0.45164 -0.45164 0.8922 411.344 35.301)" fill="url(#paint18_linear)"/>
<rect width="2" height="483" rx="1" transform="matrix(-0.8922 -0.45164 -0.45164 0.8922 401.53 30.333)" fill="url(#paint19_linear)"/>
<rect width="2" height="483" rx="1" transform="matrix(-0.8922 -0.45164 -0.45164 0.8922 391.716 25.3649)" fill="url(#paint20_linear)"/>
<rect width="2" height="483" rx="1" transform="matrix(-0.8922 -0.45164 -0.45164 0.8922 381.902 20.3969)" fill="url(#paint21_linear)"/>
<rect width="2" height="483" rx="1" transform="matrix(-0.8922 -0.45164 -0.45164 0.8922 372.087 15.4289)" fill="url(#paint22_linear)"/>
<rect width="2" height="483" rx="1" transform="matrix(-0.8922 -0.45164 -0.45164 0.8922 362.273 10.4608)" fill="url(#paint23_linear)"/>
<rect width="2" height="483" rx="1" transform="matrix(-0.8922 -0.45164 -0.45164 0.8922 352.459 5.4928)" fill="url(#paint24_linear)"/>
<rect width="2" height="483" rx="1" transform="matrix(-0.8922 -0.45164 -0.45164 0.8922 342.645 0.52475)" fill="url(#paint25_linear)"/>
<rect width="2" height="483" rx="1" transform="matrix(-0.8922 -0.45164 -0.45164 0.8922 332.831 -4.4433)" fill="url(#paint26_linear)"/>
<rect width="2" height="483" rx="1" transform="matrix(-0.8922 -0.45164 -0.45164 0.8922 323.017 -9.41132)" fill="url(#paint27_linear)"/>
<rect width="2" height="483" rx="1" transform="matrix(-0.8922 -0.45164 -0.45164 0.8922 313.202 -14.3794)" fill="url(#paint28_linear)"/>
<rect width="2" height="483" rx="1" transform="matrix(-0.8922 -0.45164 -0.45164 0.8922 303.388 -19.3474)" fill="url(#paint29_linear)"/>
<rect width="2" height="483" rx="1" transform="matrix(-0.8922 -0.45164 -0.45164 0.8922 293.574 -24.3155)" fill="url(#paint30_linear)"/>
<rect width="2" height="483" rx="1" transform="matrix(-0.8922 -0.45164 -0.45164 0.8922 283.76 -29.2835)" fill="url(#paint31_linear)"/>
<rect width="2" height="483" rx="1" transform="matrix(-0.8922 -0.45164 -0.45164 0.8922 273.946 -34.2515)" fill="url(#paint32_linear)"/>
<rect width="2" height="483" rx="1" transform="matrix(-0.8922 -0.45164 -0.45164 0.8922 264.131 -39.2196)" fill="url(#paint33_linear)"/>
<rect width="2" height="483" rx="1" transform="matrix(-0.8922 -0.45164 -0.45164 0.8922 254.317 -44.1876)" fill="url(#paint34_linear)"/>
<rect width="2" height="483" rx="1" transform="matrix(-0.8922 -0.45164 -0.45164 0.8922 244.503 -49.1556)" fill="url(#paint35_linear)"/>
<rect width="2" height="483" rx="1" transform="matrix(-0.8922 -0.45164 -0.45164 0.8922 234.689 -54.1237)" fill="url(#paint36_linear)"/>
<rect width="2" height="483" rx="1" transform="matrix(-0.8922 -0.45164 -0.45164 0.8922 224.875 -59.0917)" fill="url(#paint37_linear)"/>
<rect width="2" height="483" rx="1" transform="matrix(-0.8922 -0.45164 -0.45164 0.8922 215.06 -64.0598)" fill="url(#paint38_linear)"/>
<rect width="2" height="483" rx="1" transform="matrix(-0.8922 -0.45164 -0.45164 0.8922 205.246 -69.0278)" fill="url(#paint39_linear)"/>
<rect width="2" height="483" rx="1" transform="matrix(-0.8922 -0.45164 -0.45164 0.8922 195.432 -73.9958)" fill="url(#paint40_linear)"/>
<rect width="2" height="483" rx="1" transform="matrix(-0.8922 -0.45164 -0.45164 0.8922 185.618 -78.9639)" fill="url(#paint41_linear)"/>
<rect width="2" height="483" rx="1" transform="matrix(-0.8922 -0.45164 -0.45164 0.8922 175.803 -83.9319)" fill="url(#paint42_linear)"/>
<rect width="2" height="483" rx="1" transform="matrix(-0.8922 -0.45164 -0.45164 0.8922 165.989 -88.8999)" fill="url(#paint43_linear)"/>
<rect width="2" height="483" rx="1" transform="matrix(-0.8922 -0.45164 -0.45164 0.8922 156.175 -93.868)" fill="url(#paint44_linear)"/>
<rect width="2" height="483" rx="1" transform="matrix(-0.8922 -0.45164 -0.45164 0.8922 146.361 -98.836)" fill="url(#paint45_linear)"/>
<rect width="2" height="483" rx="1" transform="matrix(-0.8922 -0.45164 -0.45164 0.8922 136.547 -103.804)" fill="url(#paint46_linear)"/>
<rect width="2" height="483" rx="1" transform="matrix(-0.8922 -0.45164 -0.45164 0.8922 126.732 -108.772)" fill="url(#paint47_linear)"/>
<rect width="2" height="483" rx="1" transform="matrix(-0.8922 -0.45164 -0.45164 0.8922 116.918 -113.74)" fill="url(#paint48_linear)"/>
<rect width="2" height="483" rx="1" transform="matrix(-0.8922 -0.45164 -0.45164 0.8922 107.104 -118.708)" fill="url(#paint49_linear)"/>
<rect width="2" height="483" rx="1" transform="matrix(-0.8922 -0.45164 -0.45164 0.8922 97.2898 -123.676)" fill="url(#paint50_linear)"/>
<rect width="2" height="483" rx="1" transform="matrix(-0.8922 -0.45164 -0.45164 0.8922 87.4756 -128.644)" fill="url(#paint51_linear)"/>
<rect width="2" height="483" rx="1" transform="matrix(-0.8922 -0.45164 -0.45164 0.8922 77.6614 -133.612)" fill="url(#paint52_linear)"/>
<rect width="2" height="483" rx="1" transform="matrix(-0.8922 -0.45164 -0.45164 0.8922 67.8472 -138.58)" fill="url(#paint53_linear)"/>
<rect width="2" height="483" rx="1" transform="matrix(-0.8922 -0.45164 -0.45164 0.8922 58.033 -143.548)" fill="url(#paint54_linear)"/>
</g>
<path d="M106.014 385.868L106.017 385.87C178.497 435.459 274.296 444.723 345.115 399.058L345.117 399.056C380.733 376.412 410.231 340.11 427.604 299.491C444.977 258.871 450.207 213.977 437.358 174.144C424.508 134.31 393.653 99.5631 353.999 74.867C314.348 50.1726 265.935 35.551 218.025 35.9383L218.023 35.9383C170.114 36.1319 122.594 51.3344 84.2808 75.8824C45.9638 100.433 16.8969 134.304 5.83029 171.804C-5.23459 209.298 1.57315 250.5 20.2816 288.503C38.9892 326.504 69.5805 361.271 106.014 385.868Z" stroke="#131313"/>
<defs>
<linearGradient id="paint0_linear" x1="1" y1="169.05" x2="-0.457161" y2="169.052" gradientUnits="userSpaceOnUse">
<stop stop-color="#FF8E47"/>
<stop offset="1" stop-color="#FF2CED"/>
</linearGradient>
<linearGradient id="paint1_linear" x1="1" y1="169.05" x2="-0.457161" y2="169.052" gradientUnits="userSpaceOnUse">
<stop stop-color="#FF8E47"/>
<stop offset="1" stop-color="#FF2CED"/>
</linearGradient>
<linearGradient id="paint2_linear" x1="1" y1="169.05" x2="-0.457161" y2="169.052" gradientUnits="userSpaceOnUse">
<stop stop-color="#FF8E47"/>
<stop offset="1" stop-color="#FF2CED"/>
</linearGradient>
<linearGradient id="paint3_linear" x1="1" y1="169.05" x2="-0.457161" y2="169.052" gradientUnits="userSpaceOnUse">
<stop stop-color="#FF8E47"/>
<stop offset="1" stop-color="#FF2CED"/>
</linearGradient>
<linearGradient id="paint4_linear" x1="1" y1="169.05" x2="-0.457161" y2="169.052" gradientUnits="userSpaceOnUse">
<stop stop-color="#FF8E47"/>
<stop offset="1" stop-color="#FF2CED"/>
</linearGradient>
<linearGradient id="paint5_linear" x1="1" y1="169.05" x2="-0.457161" y2="169.052" gradientUnits="userSpaceOnUse">
<stop stop-color="#FF8E47"/>
<stop offset="1" stop-color="#FF2CED"/>
</linearGradient>
<linearGradient id="paint6_linear" x1="1" y1="169.05" x2="-0.457161" y2="169.052" gradientUnits="userSpaceOnUse">
<stop stop-color="#FF8E47"/>
<stop offset="1" stop-color="#FF2CED"/>
</linearGradient>
<linearGradient id="paint7_linear" x1="1" y1="169.05" x2="-0.457161" y2="169.052" gradientUnits="userSpaceOnUse">
<stop stop-color="#FF8E47"/>
<stop offset="1" stop-color="#FF2CED"/>
</linearGradient>
<linearGradient id="paint8_linear" x1="1" y1="169.05" x2="-0.457161" y2="169.052" gradientUnits="userSpaceOnUse">
<stop stop-color="#FF8E47"/>
<stop offset="1" stop-color="#FF2CED"/>
</linearGradient>
<linearGradient id="paint9_linear" x1="1" y1="169.05" x2="-0.457161" y2="169.052" gradientUnits="userSpaceOnUse">
<stop stop-color="#FF8E47"/>
<stop offset="1" stop-color="#FF2CED"/>
</linearGradient>
<linearGradient id="paint10_linear" x1="1" y1="169.05" x2="-0.457161" y2="169.052" gradientUnits="userSpaceOnUse">
<stop stop-color="#FF8E47"/>
<stop offset="1" stop-color="#FF2CED"/>
</linearGradient>
<linearGradient id="paint11_linear" x1="1" y1="169.05" x2="-0.457161" y2="169.052" gradientUnits="userSpaceOnUse">
<stop stop-color="#FF8E47"/>
<stop offset="1" stop-color="#FF2CED"/>
</linearGradient>
<linearGradient id="paint12_linear" x1="1" y1="169.05" x2="-0.457161" y2="169.052" gradientUnits="userSpaceOnUse">
<stop stop-color="#FF8E47"/>
<stop offset="1" stop-color="#FF2CED"/>
</linearGradient>
<linearGradient id="paint13_linear" x1="1" y1="169.05" x2="-0.457161" y2="169.052" gradientUnits="userSpaceOnUse">
<stop stop-color="#FF8E47"/>
<stop offset="1" stop-color="#FF2CED"/>
</linearGradient>
<linearGradient id="paint14_linear" x1="1" y1="169.05" x2="-0.457161" y2="169.052" gradientUnits="userSpaceOnUse">
<stop stop-color="#FF8E47"/>
<stop offset="1" stop-color="#FF2CED"/>
</linearGradient>
<linearGradient id="paint15_linear" x1="1" y1="169.05" x2="-0.457161" y2="169.052" gradientUnits="userSpaceOnUse">
<stop stop-color="#FF8E47"/>
<stop offset="1" stop-color="#FF2CED"/>
</linearGradient>
<linearGradient id="paint16_linear" x1="1" y1="169.05" x2="-0.457161" y2="169.052" gradientUnits="userSpaceOnUse">
<stop stop-color="#FF8E47"/>
<stop offset="1" stop-color="#FF2CED"/>
</linearGradient>
<linearGradient id="paint17_linear" x1="1" y1="169.05" x2="-0.457161" y2="169.052" gradientUnits="userSpaceOnUse">
<stop stop-color="#FF8E47"/>
<stop offset="1" stop-color="#FF2CED"/>
</linearGradient>
<linearGradient id="paint18_linear" x1="1" y1="169.05" x2="-0.457161" y2="169.052" gradientUnits="userSpaceOnUse">
<stop stop-color="#FF8E47"/>
<stop offset="1" stop-color="#FF2CED"/>
</linearGradient>
<linearGradient id="paint19_linear" x1="1" y1="169.05" x2="-0.457161" y2="169.052" gradientUnits="userSpaceOnUse">
<stop stop-color="#FF8E47"/>
<stop offset="1" stop-color="#FF2CED"/>
</linearGradient>
<linearGradient id="paint20_linear" x1="1" y1="169.05" x2="-0.457161" y2="169.052" gradientUnits="userSpaceOnUse">
<stop stop-color="#FF8E47"/>
<stop offset="1" stop-color="#FF2CED"/>
</linearGradient>
<linearGradient id="paint21_linear" x1="1" y1="169.05" x2="-0.457161" y2="169.052" gradientUnits="userSpaceOnUse">
<stop stop-color="#FF8E47"/>
<stop offset="1" stop-color="#FF2CED"/>
</linearGradient>
<linearGradient id="paint22_linear" x1="1" y1="169.05" x2="-0.457161" y2="169.052" gradientUnits="userSpaceOnUse">
<stop stop-color="#FF8E47"/>
<stop offset="1" stop-color="#FF2CED"/>
</linearGradient>
<linearGradient id="paint23_linear" x1="1" y1="169.05" x2="-0.457161" y2="169.052" gradientUnits="userSpaceOnUse">
<stop stop-color="#FF8E47"/>
<stop offset="1" stop-color="#FF2CED"/>
</linearGradient>
<linearGradient id="paint24_linear" x1="1" y1="169.05" x2="-0.457161" y2="169.052" gradientUnits="userSpaceOnUse">
<stop stop-color="#FF8E47"/>
<stop offset="1" stop-color="#FF2CED"/>
</linearGradient>
<linearGradient id="paint25_linear" x1="1" y1="169.05" x2="-0.457161" y2="169.052" gradientUnits="userSpaceOnUse">
<stop stop-color="#FF8E47"/>
<stop offset="1" stop-color="#FF2CED"/>
</linearGradient>
<linearGradient id="paint26_linear" x1="1" y1="169.05" x2="-0.457161" y2="169.052" gradientUnits="userSpaceOnUse">
<stop stop-color="#FF8E47"/>
<stop offset="1" stop-color="#FF2CED"/>
</linearGradient>
<linearGradient id="paint27_linear" x1="1" y1="169.05" x2="-0.457161" y2="169.052" gradientUnits="userSpaceOnUse">
<stop stop-color="#FF8E47"/>
<stop offset="1" stop-color="#FF2CED"/>
</linearGradient>
<linearGradient id="paint28_linear" x1="1" y1="169.05" x2="-0.457161" y2="169.052" gradientUnits="userSpaceOnUse">
<stop stop-color="#FF8E47"/>
<stop offset="1" stop-color="#FF2CED"/>
</linearGradient>
<linearGradient id="paint29_linear" x1="1" y1="169.05" x2="-0.457161" y2="169.052" gradientUnits="userSpaceOnUse">
<stop stop-color="#FF8E47"/>
<stop offset="1" stop-color="#FF2CED"/>
</linearGradient>
<linearGradient id="paint30_linear" x1="1" y1="169.05" x2="-0.457161" y2="169.052" gradientUnits="userSpaceOnUse">
<stop stop-color="#FF8E47"/>
<stop offset="1" stop-color="#FF2CED"/>
</linearGradient>
<linearGradient id="paint31_linear" x1="1" y1="169.05" x2="-0.457161" y2="169.052" gradientUnits="userSpaceOnUse">
<stop stop-color="#FF8E47"/>
<stop offset="1" stop-color="#FF2CED"/>
</linearGradient>
<linearGradient id="paint32_linear" x1="1" y1="169.05" x2="-0.457161" y2="169.052" gradientUnits="userSpaceOnUse">
<stop stop-color="#FF8E47"/>
<stop offset="1" stop-color="#FF2CED"/>
</linearGradient>
<linearGradient id="paint33_linear" x1="1" y1="169.05" x2="-0.457161" y2="169.052" gradientUnits="userSpaceOnUse">
<stop stop-color="#FF8E47"/>
<stop offset="1" stop-color="#FF2CED"/>
</linearGradient>
<linearGradient id="paint34_linear" x1="1" y1="169.05" x2="-0.457161" y2="169.052" gradientUnits="userSpaceOnUse">
<stop stop-color="#FF8E47"/>
<stop offset="1" stop-color="#FF2CED"/>
</linearGradient>
<linearGradient id="paint35_linear" x1="1" y1="169.05" x2="-0.457161" y2="169.052" gradientUnits="userSpaceOnUse">
<stop stop-color="#FF8E47"/>
<stop offset="1" stop-color="#FF2CED"/>
</linearGradient>
<linearGradient id="paint36_linear" x1="1" y1="169.05" x2="-0.457161" y2="169.052" gradientUnits="userSpaceOnUse">
<stop stop-color="#FF8E47"/>
<stop offset="1" stop-color="#FF2CED"/>
</linearGradient>
<linearGradient id="paint37_linear" x1="1" y1="169.05" x2="-0.457161" y2="169.052" gradientUnits="userSpaceOnUse">
<stop stop-color="#FF8E47"/>
<stop offset="1" stop-color="#FF2CED"/>
</linearGradient>
<linearGradient id="paint38_linear" x1="1" y1="169.05" x2="-0.457161" y2="169.052" gradientUnits="userSpaceOnUse">
<stop stop-color="#FF8E47"/>
<stop offset="1" stop-color="#FF2CED"/>
</linearGradient>
<linearGradient id="paint39_linear" x1="1" y1="169.05" x2="-0.457161" y2="169.052" gradientUnits="userSpaceOnUse">
<stop stop-color="#FF8E47"/>
<stop offset="1" stop-color="#FF2CED"/>
</linearGradient>
<linearGradient id="paint40_linear" x1="1" y1="169.05" x2="-0.457161" y2="169.052" gradientUnits="userSpaceOnUse">
<stop stop-color="#FF8E47"/>
<stop offset="1" stop-color="#FF2CED"/>
</linearGradient>
<linearGradient id="paint41_linear" x1="1" y1="169.05" x2="-0.457161" y2="169.052" gradientUnits="userSpaceOnUse">
<stop stop-color="#FF8E47"/>
<stop offset="1" stop-color="#FF2CED"/>
</linearGradient>
<linearGradient id="paint42_linear" x1="1" y1="169.05" x2="-0.457161" y2="169.052" gradientUnits="userSpaceOnUse">
<stop stop-color="#FF8E47"/>
<stop offset="1" stop-color="#FF2CED"/>
</linearGradient>
<linearGradient id="paint43_linear" x1="1" y1="169.05" x2="-0.457161" y2="169.052" gradientUnits="userSpaceOnUse">
<stop stop-color="#FF8E47"/>
<stop offset="1" stop-color="#FF2CED"/>
</linearGradient>
<linearGradient id="paint44_linear" x1="1" y1="169.05" x2="-0.457161" y2="169.052" gradientUnits="userSpaceOnUse">
<stop stop-color="#FF8E47"/>
<stop offset="1" stop-color="#FF2CED"/>
</linearGradient>
<linearGradient id="paint45_linear" x1="1" y1="169.05" x2="-0.457161" y2="169.052" gradientUnits="userSpaceOnUse">
<stop stop-color="#FF8E47"/>
<stop offset="1" stop-color="#FF2CED"/>
</linearGradient>
<linearGradient id="paint46_linear" x1="1" y1="169.05" x2="-0.457161" y2="169.052" gradientUnits="userSpaceOnUse">
<stop stop-color="#FF8E47"/>
<stop offset="1" stop-color="#FF2CED"/>
</linearGradient>
<linearGradient id="paint47_linear" x1="1" y1="169.05" x2="-0.457161" y2="169.052" gradientUnits="userSpaceOnUse">
<stop stop-color="#FF8E47"/>
<stop offset="1" stop-color="#FF2CED"/>
</linearGradient>
<linearGradient id="paint48_linear" x1="1" y1="169.05" x2="-0.457161" y2="169.052" gradientUnits="userSpaceOnUse">
<stop stop-color="#FF8E47"/>
<stop offset="1" stop-color="#FF2CED"/>
</linearGradient>
<linearGradient id="paint49_linear" x1="1" y1="169.05" x2="-0.457161" y2="169.052" gradientUnits="userSpaceOnUse">
<stop stop-color="#FF8E47"/>
<stop offset="1" stop-color="#FF2CED"/>
</linearGradient>
<linearGradient id="paint50_linear" x1="1" y1="169.05" x2="-0.457161" y2="169.052" gradientUnits="userSpaceOnUse">
<stop stop-color="#FF8E47"/>
<stop offset="1" stop-color="#FF2CED"/>
</linearGradient>
<linearGradient id="paint51_linear" x1="1" y1="169.05" x2="-0.457161" y2="169.052" gradientUnits="userSpaceOnUse">
<stop stop-color="#FF8E47"/>
<stop offset="1" stop-color="#FF2CED"/>
</linearGradient>
<linearGradient id="paint52_linear" x1="1" y1="169.05" x2="-0.457161" y2="169.052" gradientUnits="userSpaceOnUse">
<stop stop-color="#FF8E47"/>
<stop offset="1" stop-color="#FF2CED"/>
</linearGradient>
<linearGradient id="paint53_linear" x1="1" y1="169.05" x2="-0.457161" y2="169.052" gradientUnits="userSpaceOnUse">
<stop stop-color="#FF8E47"/>
<stop offset="1" stop-color="#FF2CED"/>
</linearGradient>
<linearGradient id="paint54_linear" x1="1" y1="169.05" x2="-0.457161" y2="169.052" gradientUnits="userSpaceOnUse">
<stop stop-color="#FF8E47"/>
<stop offset="1" stop-color="#FF2CED"/>
</linearGradient>
</defs>
</svg>
