<svg width="445" height="395" viewBox="0 0 445 395" fill="none" xmlns="http://www.w3.org/2000/svg">
<path d="M106.014 350.868L106.017 350.87C178.497 400.459 274.296 409.723 345.115 364.058L345.117 364.056C380.733 341.412 410.231 305.11 427.604 264.491C444.977 223.871 450.207 178.977 437.358 139.144C424.508 99.3095 393.653 64.5631 353.999 39.867C314.348 15.1726 265.935 0.551001 218.025 0.938296L218.023 0.938304C170.114 1.13195 122.594 16.3344 84.2808 40.8824C45.9638 65.433 16.8969 99.3037 5.83029 136.804C-5.23459 174.298 1.57315 215.5 20.2816 253.503C38.9892 291.504 69.5805 326.271 106.014 350.868Z" stroke="#131313"/>
</svg>
