<svg width="18" height="18" viewBox="0 0 18 18" fill="none" xmlns="http://www.w3.org/2000/svg">
<g opacity="0.3">
<path d="M9 18C13.9706 18 18 13.9706 18 9C18 4.02944 13.9706 0 9 0C4.02944 0 0 4.02944 0 9C0 13.9706 4.02944 18 9 18Z" fill="#F0F0F0"/>
<path d="M17.4402 12.1304C17.802 11.1554 18 10.1009 18 8.99999C18 7.8991 17.802 6.84456 17.4402 5.86957H0.559793C0.198035 6.84456 0 7.8991 0 8.99999C0 10.1009 0.198035 11.1554 0.559793 12.1304L9 12.913L17.4402 12.1304Z" fill="#0052B4"/>
<path d="M9.00002 18C12.8697 18 16.1686 15.5576 17.4402 12.1304H0.559814C1.83145 15.5576 5.13034 18 9.00002 18Z" fill="#D80027"/>
</g>
</svg>
