<svg width="166" height="166" viewBox="0 0 166 166" fill="none" xmlns="http://www.w3.org/2000/svg">
<g filter="url(#filter0_d)">
<circle cx="83" cy="73" r="33" fill="url(#paint0_linear)"/>
</g>
<path d="M64.5701 60.504C62.8901 60.504 61.6661 61.428 61.6661 62.844C61.6661 64.104 62.3861 64.824 64.1861 65.388C65.4461 65.772 65.7701 66.06 65.7701 66.72C65.7701 67.452 65.1941 67.86 64.3421 67.86C63.4901 67.86 62.8301 67.548 62.2181 67.032L61.3181 68.028C62.0021 68.7 63.0101 69.192 64.3901 69.192C66.4061 69.192 67.6061 68.124 67.6061 66.6C67.6061 65.064 66.6461 64.44 65.1461 63.96C63.7901 63.54 63.4781 63.3 63.4781 62.724C63.4781 62.136 63.9701 61.824 64.6901 61.824C65.3621 61.824 65.9381 62.04 66.5261 62.52L67.3661 61.548C66.6461 60.876 65.8061 60.504 64.5701 60.504ZM71.3913 60.696H68.8233V69H70.5873V66.168H71.5353C73.4313 66.168 74.7993 65.292 74.7993 63.372C74.7993 61.56 73.5033 60.696 71.3913 60.696ZM71.3913 64.872H70.5873V61.968H71.3673C72.3993 61.968 72.9753 62.4 72.9753 63.372C72.9753 64.5 72.3633 64.872 71.3913 64.872ZM80.9629 60.696H76.0069V69H80.9869V67.704H77.7709V65.412H80.3869V64.14H77.7709V61.98H80.7709L80.9629 60.696ZM85.4704 60.504C83.3824 60.504 81.7744 62.04 81.7744 64.836C81.7744 67.668 83.2864 69.192 85.5064 69.192C86.6464 69.192 87.5224 68.688 88.0504 68.148L87.2344 67.128C86.7544 67.5 86.2624 67.8 85.5784 67.8C84.4264 67.8 83.6344 66.924 83.6344 64.836C83.6344 62.676 84.4504 61.836 85.5664 61.836C86.1304 61.836 86.6104 62.04 87.0784 62.424L87.9544 61.404C87.2584 60.828 86.5504 60.504 85.4704 60.504ZM90.8138 60.696H89.0498V69H90.8138V60.696ZM96.9692 69H98.8412L96.2972 60.696H94.1492L91.5932 69H93.4292L93.8972 67.14H96.5012L96.9692 69ZM94.2332 65.832L95.1932 62.004L96.1652 65.832H94.2332ZM101.372 60.696H99.6084V69H104.468L104.66 67.584H101.372V60.696ZM70.2887 77.504C68.0087 77.504 66.5927 79.136 66.5927 81.848C66.5927 84.62 68.0087 86.192 70.2887 86.192C72.5687 86.192 73.9727 84.572 73.9727 81.848C73.9727 79.064 72.5687 77.504 70.2887 77.504ZM70.2887 78.824C71.4767 78.824 72.1127 79.676 72.1127 81.848C72.1127 84.02 71.4767 84.872 70.2887 84.872C69.1367 84.872 68.4527 84.02 68.4527 81.848C68.4527 79.676 69.1127 78.824 70.2887 78.824ZM75.3096 86H77.0736V82.616H79.5696V81.332H77.0736V78.98H79.9416L80.1336 77.696H75.3096V86ZM81.169 86H82.933V82.616H85.429V81.332H82.933V78.98H85.801L85.993 77.696H81.169V86ZM91.9843 77.696H87.0283V86H92.0083V84.704H88.7923V82.412H91.4083V81.14H88.7923V78.98H91.7923L91.9843 77.696ZM97.8082 86H99.8122L97.6642 82.424C98.7682 81.944 99.3082 81.284 99.3082 80.18C99.3082 78.5 98.1802 77.696 95.9602 77.696H93.3682V86H95.1322V82.748H96.0322L97.8082 86ZM95.1322 78.956H95.9242C96.9922 78.956 97.4842 79.328 97.4842 80.18C97.4842 81.116 96.9802 81.5 96.0562 81.5H95.1322V78.956Z" fill="white"/>
<defs>
<filter id="filter0_d" x="0" y="0" width="166" height="166" filterUnits="userSpaceOnUse" color-interpolation-filters="sRGB">
<feFlood flood-opacity="0" result="BackgroundImageFix"/>
<feColorMatrix in="SourceAlpha" type="matrix" values="0 0 0 0 0 0 0 0 0 0 0 0 0 0 0 0 0 0 127 0"/>
<feOffset dy="10"/>
<feGaussianBlur stdDeviation="25"/>
<feColorMatrix type="matrix" values="0 0 0 0 0.198854 0 0 0 0 0.266465 0 0 0 0 0.345833 0 0 0 0.12 0"/>
<feBlend mode="normal" in2="BackgroundImageFix" result="effect1_dropShadow"/>
<feBlend mode="normal" in="SourceGraphic" in2="effect1_dropShadow" result="shape"/>
</filter>
<linearGradient id="paint0_linear" x1="116.584" y1="39.3654" x2="39.3474" y2="55.7337" gradientUnits="userSpaceOnUse">
<stop stop-color="#EBFF5F"/>
<stop offset="1" stop-color="#6ABD0D"/>
</linearGradient>
</defs>
</svg>
