<svg width="18" height="16" viewBox="0 0 18 16" fill="none" xmlns="http://www.w3.org/2000/svg">
<path d="M17.2433 1.96265C17.2434 1.83018 17.2084 1.70005 17.1418 1.58551C17.0752 1.47098 16.9795 1.37613 16.8644 1.31063C16.7492 1.24513 16.6188 1.21131 16.4863 1.21263C16.3538 1.21394 16.2241 1.25034 16.1103 1.31812C15.6713 1.57941 15.1987 1.77951 14.7055 1.91287C14.0012 1.30854 13.103 0.977847 12.175 0.981227C11.1569 0.982399 10.1792 1.37917 9.44817 2.08776C8.71717 2.79635 8.29015 3.7613 8.25729 4.77884C6.25027 4.45878 4.43126 3.41123 3.14713 1.83594C3.06975 1.74207 2.97094 1.66818 2.85902 1.6205C2.7471 1.57283 2.62536 1.55276 2.50406 1.562C2.38283 1.57199 2.26586 1.61135 2.16325 1.67669C2.06065 1.74203 1.97551 1.83137 1.91519 1.937C1.60584 2.47686 1.42816 3.08207 1.3966 3.70348C1.36504 4.3249 1.48048 4.94499 1.73355 5.51342L1.73209 5.51488C1.61835 5.58493 1.52448 5.683 1.45946 5.79969C1.39445 5.91638 1.36046 6.04781 1.36075 6.18139C1.35937 6.29159 1.36598 6.40174 1.38052 6.51098C1.45713 7.45468 1.87536 8.33802 2.55679 8.99535C2.51057 9.08342 2.48235 9.17982 2.4738 9.27891C2.46525 9.37801 2.47653 9.47781 2.50699 9.5725C2.80407 10.4981 3.43586 11.2795 4.27872 11.7639C3.4224 12.095 2.49778 12.2105 1.58633 12.1001C1.41763 12.0789 1.24675 12.1157 1.10172 12.2044C0.95668 12.2931 0.846101 12.4285 0.788117 12.5884C0.730133 12.7482 0.728188 12.923 0.782601 13.084C0.837014 13.2451 0.944554 13.3829 1.08758 13.4748C2.65515 14.4845 4.48034 15.0212 6.34491 15.021C8.45935 15.0448 10.5224 14.3691 12.2131 13.0991C13.9038 11.8291 15.1274 10.0359 15.6935 7.9985C15.9583 7.11098 16.0935 6.18986 16.0949 5.26367C16.0949 5.2146 16.0949 5.16407 16.0942 5.11353C16.4857 4.69123 16.7891 4.19501 16.9864 3.65395C17.1837 3.1129 17.2711 2.5379 17.2433 1.96265ZM14.7633 4.37159C14.6395 4.5181 14.5768 4.70669 14.5883 4.8982C14.5956 5.02195 14.5949 5.14645 14.5949 5.26367C14.5933 6.04633 14.4786 6.82465 14.2543 7.57447C13.7919 9.30801 12.7612 10.8362 11.3271 11.9144C9.89306 12.9926 8.13867 13.5583 6.34491 13.521C5.70057 13.5212 5.05845 13.4455 4.43182 13.2954C5.23088 13.0379 5.97801 12.6409 6.63861 12.1228C6.76028 12.027 6.84932 11.8959 6.89352 11.7475C6.93773 11.5991 6.93492 11.4406 6.88549 11.2939C6.83606 11.1471 6.74243 11.0192 6.61744 10.9278C6.49246 10.8364 6.34224 10.7859 6.18741 10.7832C5.56403 10.7735 4.96876 10.5222 4.52701 10.0823C4.63907 10.061 4.7504 10.0347 4.861 10.0032C5.023 9.95707 5.16478 9.85777 5.26349 9.72128C5.3622 9.58479 5.41211 9.41906 5.40518 9.25076C5.39824 9.08246 5.33487 8.92139 5.22526 8.79349C5.11565 8.66558 4.96619 8.57829 4.80094 8.54566C4.43909 8.4742 4.0986 8.32026 3.80592 8.0958C3.51325 7.87134 3.27628 7.58241 3.11344 7.25147C3.24898 7.26997 3.38539 7.28146 3.52213 7.28589C3.68456 7.28835 3.84357 7.23907 3.97616 7.1452C4.10874 7.05132 4.20804 6.9177 4.25968 6.76367C4.30916 6.60825 4.30661 6.44092 4.25242 6.28707C4.19823 6.13322 4.09535 6.00124 3.95938 5.91113C3.62949 5.69136 3.35927 5.3932 3.1729 5.04335C2.98653 4.6935 2.88985 4.30289 2.89151 3.9065C2.89151 3.8567 2.89297 3.8069 2.89591 3.75782C4.57685 5.32552 6.75715 6.24966 9.05266 6.36744C9.16853 6.37201 9.28392 6.35018 9.39012 6.30362C9.49632 6.25705 9.59055 6.18696 9.6657 6.09864C9.74008 6.00947 9.79275 5.90425 9.81956 5.79126C9.84637 5.67827 9.84659 5.56061 9.8202 5.44752C9.77731 5.26854 9.75543 5.08518 9.75502 4.90113C9.7557 4.25953 10.0109 3.64441 10.4646 3.19073C10.9182 2.73705 11.5334 2.48188 12.175 2.4812C12.5051 2.48032 12.8318 2.54788 13.1344 2.67961C13.4371 2.81135 13.7092 3.0044 13.9335 3.24659C14.02 3.33965 14.1289 3.40903 14.2498 3.44814C14.3707 3.48724 14.4995 3.49477 14.6242 3.47C14.9322 3.41005 15.2359 3.3293 15.5331 3.22831C15.3304 3.64304 15.0714 4.02777 14.7633 4.37159Z" fill="#343434"/>
</svg>
