<svg width="16" height="12" viewBox="0 0 16 12" fill="none" xmlns="http://www.w3.org/2000/svg">
<path d="M14.71 1.20998C14.617 1.11625 14.5064 1.04186 14.3846 0.991091C14.2627 0.940323 14.132 0.914185 14 0.914185C13.868 0.914185 13.7373 0.940323 13.6154 0.991091C13.4936 1.04186 13.383 1.11625 13.29 1.20998L5.84 8.66998L2.71 5.52998C2.61347 5.43674 2.49953 5.36343 2.37468 5.31423C2.24982 5.26502 2.1165 5.24089 1.98232 5.24321C1.84814 5.24553 1.71573 5.27426 1.59265 5.32776C1.46957 5.38125 1.35823 5.45846 1.265 5.55498C1.17176 5.6515 1.09844 5.76545 1.04924 5.8903C1.00004 6.01516 0.975905 6.14848 0.978226 6.28266C0.980548 6.41684 1.00928 6.54925 1.06277 6.67233C1.11626 6.79541 1.19347 6.90674 1.29 6.99998L5.13 10.84C5.22296 10.9337 5.33356 11.0081 5.45542 11.0589C5.57728 11.1096 5.70798 11.1358 5.84 11.1358C5.97201 11.1358 6.10271 11.1096 6.22457 11.0589C6.34643 11.0081 6.45703 10.9337 6.55 10.84L14.71 2.67998C14.8115 2.58634 14.8925 2.47269 14.9479 2.34619C15.0033 2.21969 15.0319 2.08308 15.0319 1.94498C15.0319 1.80688 15.0033 1.67028 14.9479 1.54378C14.8925 1.41728 14.8115 1.30363 14.71 1.20998Z" fill="url(#paint0_linear)"/>
<defs>
<linearGradient id="paint0_linear" x1="15.1563" y1="0.815901" x2="-0.684049" y2="5.43142" gradientUnits="userSpaceOnUse">
<stop stop-color="#610BFC"/>
<stop offset="1" stop-color="#FF37CC"/>
</linearGradient>
</defs>
</svg>
